<?xml version="1.0" standalone="no"?><!DOCTYPE svg PUBLIC "-//W3C//DTD SVG 1.1//EN" "http://www.w3.org/Graphics/SVG/1.1/DTD/svg11.dtd"><svg t="1622157479569" class="icon" viewBox="0 0 1024 1024" version="1.1" xmlns="http://www.w3.org/2000/svg" p-id="836" xmlns:xlink="http://www.w3.org/1999/xlink" width="200" height="200"><defs><style type="text/css"></style></defs><path d="M336.8 72.3H156c-67.5 0-122.4 54.9-122.4 122.4v180.8C33.6 443.1 88.5 498 156 498h180.8c67.5 0 122.4-54.9 122.4-122.4V194.7c0-67.5-54.9-122.4-122.4-122.4zM336.8 563.8H156c-67.5 0-122.4 54.9-122.4 122.4V867c0 67.5 54.9 122.4 122.4 122.4h180.8c67.5 0 122.4-54.9 122.4-122.4V686.3c0-67.5-54.9-122.5-122.4-122.5zM951.7 198.6L823.8 70.7C776.1 23 698.4 23 650.7 70.7L522.8 198.6c-47.7 47.7-47.7 125.4 0 173.1l127.9 127.9c23.9 23.9 55.2 35.8 86.6 35.8 31.3 0 62.7-11.9 86.6-35.8l127.9-127.9c47.6-47.7 47.6-125.4-0.1-173.1z m-40.8 132.3L783 458.7c-25.2 25.2-66.2 25.2-91.5 0L563.7 330.9c-25.2-25.2-25.2-66.2 0-91.5l127.9-127.9c12.6-12.6 29.2-18.9 45.7-18.9 16.6 0 33.1 6.3 45.7 18.9l127.9 127.9c25.2 25.2 25.2 66.2 0 91.5zM827.7 563.8H646.9c-67.5 0-122.4 54.9-122.4 122.4V867c0 67.5 54.9 122.4 122.4 122.4h180.8c67.5 0 122.4-54.9 122.4-122.4V686.3c0-67.5-54.9-122.5-122.4-122.5z" fill="#444444" p-id="837"></path></svg>