<?xml version="1.0" standalone="no"?><!DOCTYPE svg PUBLIC "-//W3C//DTD SVG 1.1//EN" "http://www.w3.org/Graphics/SVG/1.1/DTD/svg11.dtd"><svg t="1623690548848" class="icon" viewBox="0 0 1024 1024" version="1.1" xmlns="http://www.w3.org/2000/svg" p-id="2184" xmlns:xlink="http://www.w3.org/1999/xlink" width="25" height="25"><defs><style type="text/css"></style></defs><path d="M530 806.5c-40.6-42.6-65.5-100.3-65.5-163.8 0-131.2 106.3-237.5 237.5-237.5s237.5 106.3 237.5 237.5V778l-45.4 27.3-364.1 1.2z" fill="#E4F7F9" p-id="2185"></path><path d="M369.5 407.5c-15.7 0-28.5-12.8-28.5-28.5v-47.5c0-15.7 12.8-28.5 28.5-28.5s28.5 12.8 28.5 28.5V379c0 15.7-12.8 28.5-28.5 28.5zM369.5 579.6c-15.7 0-28.5-12.8-28.5-28.5v-78.2c0-15.7 12.8-28.5 28.5-28.5s28.5 12.8 28.5 28.5v78.2c0 15.7-12.8 28.5-28.5 28.5zM369.5 721c-15.7 0-28.5-12.8-28.5-28.5V645c0-15.7 12.8-28.5 28.5-28.5S398 629.3 398 645v47.5c0 15.7-12.8 28.5-28.5 28.5z" fill="#2EC99D" p-id="2186"></path><path d="M882.5 835h-741C94.4 835 56 796.6 56 749.5V584.3c0-10.1 5.4-19.5 14.2-24.6 20.9-12.1 33.3-33.5 33.3-57.2S91 457.4 70.2 445.3c-8.8-5.1-14.2-14.5-14.2-24.6V274.5c0-47.1 38.4-85.5 85.5-85.5h741c47.1 0 85.5 38.4 85.5 85.5v146.2c0 10.1-5.4 19.5-14.2 24.6-20.9 12.1-33.3 33.5-33.3 57.2s12.5 45 33.3 57.2c8.8 5.1 14.2 14.5 14.2 24.6v165.2c0 47.1-38.4 85.5-85.5 85.5zM113 599.3v150.2c0 15.7 12.8 28.5 28.5 28.5h741c15.7 0 28.5-12.8 28.5-28.5V599.3c-29.7-23.2-47.5-59-47.5-96.8s17.8-73.6 47.5-96.9V274.5c0-15.7-12.8-28.5-28.5-28.5h-741c-15.7 0-28.5 12.8-28.5 28.5v131.1c29.7 23.2 47.5 59 47.5 96.9s-17.8 73.6-47.5 96.8z" fill="#0F1110" p-id="2187"></path></svg>