<?xml version="1.0" standalone="no"?><!DOCTYPE svg PUBLIC "-//W3C//DTD SVG 1.1//EN" "http://www.w3.org/Graphics/SVG/1.1/DTD/svg11.dtd"><svg t="1618586014609" class="icon" viewBox="0 0 1024 1024" version="1.1" xmlns="http://www.w3.org/2000/svg" p-id="1271" xmlns:xlink="http://www.w3.org/1999/xlink" width="200" height="200"><defs><style type="text/css"></style></defs><path d="M333.546667 453.354667h300.757333l-18.901333 327.018666c-2.154667 36.970667-30.421333 67.456-67.477334 67.456h-125.354666c-37.034667 0-65.024-30.442667-67.456-67.456l-21.568-327.018666z" fill="#FF7175" p-id="1272"></path><path d="M378.112 453.354667h138.133333l-7.466666 283.733333c-0.661333 24.661333-20.245333 44.885333-44.864 44.885333h-21.482667c-24.618667 0-43.157333-20.288-44.864-44.885333l-19.456-283.733333z" fill="#FF9E98" p-id="1273"></path><path d="M518.314667 652.864m-16.554667 0a16.554667 16.554667 0 1 0 33.109333 0 16.554667 16.554667 0 1 0-33.109333 0Z" fill="#FF9E98" p-id="1274"></path><path d="M578.816 588.544m-16.554667 0a16.554667 16.554667 0 1 0 33.109334 0 16.554667 16.554667 0 1 0-33.109334 0Z" fill="#FF9E98" p-id="1275"></path><path d="M597.269333 642.048m-16.554666 0a16.554667 16.554667 0 1 0 33.109333 0 16.554667 16.554667 0 1 0-33.109333 0Z" fill="#FF9E98" p-id="1276"></path><path d="M548.437333 868.864h-125.333333c-47.488 0-85.781333-37.696-89.088-87.68l-12.288-186.325333a21.696 21.696 0 0 1 20.181333-23.061334 21.610667 21.610667 0 0 1 23.04 20.181334l12.309334 186.325333c1.770667 26.922667 21.482667 47.232 45.845333 47.232h125.333333c24.576 0 44.288-20.245333 45.824-47.061333l17.578667-304.085334H357.184l3.306667 50.026667a21.653333 21.653333 0 0 1-43.221334 2.88l-4.842666-73.109333a21.717333 21.717333 0 0 1 21.632-23.125334h300.757333a21.653333 21.653333 0 0 1 21.610667 22.912l-18.88 326.997334c-2.858667 49.301333-42.005333 87.893333-89.109334 87.893333z" fill="#231815" p-id="1277"></path><path d="M334.058667 381.973333h300.757333c19.477333 0 35.392 15.914667 35.392 35.392 0 19.456-15.936 35.392-35.392 35.392H334.058667A35.498667 35.498667 0 0 1 298.666667 417.365333a35.477333 35.477333 0 0 1 35.392-35.392z" fill="#FFFFFF" p-id="1278"></path><path d="M634.794667 474.410667H334.058667a57.109333 57.109333 0 0 1-57.045334-57.045334 57.088 57.088 0 0 1 57.045334-57.045333h300.757333a57.109333 57.109333 0 0 1 57.045333 57.045333 57.173333 57.173333 0 0 1-57.066666 57.045334zM334.058667 403.626667a13.930667 13.930667 0 0 0-13.738667 13.738666c0 7.424 6.272 13.717333 13.738667 13.717334h300.757333a13.909333 13.909333 0 0 0 13.738667-13.717334 13.930667 13.930667 0 0 0-13.738667-13.738666H334.058667z" fill="#231815" p-id="1279"></path><path d="M643.477333 363.605333a168.64 168.64 0 1 0-337.258666 0h337.258666z" fill="#FFFFFF" p-id="1280"></path><path d="M653.056 403.626667a21.632 21.632 0 0 1-21.653333-21.653334 147.114667 147.114667 0 0 0-146.965334-146.965333 146.133333 146.133333 0 0 0-102.272 41.429333 21.674667 21.674667 0 0 1-30.186666-31.125333 189.312 189.312 0 0 1 132.458666-53.653333c104.938667 0 190.293333 85.354667 190.293334 190.293333a21.696 21.696 0 0 1-21.674667 21.674667z m-337.28 0a21.653333 21.653333 0 0 1-21.674667-21.653334 188.586667 188.586667 0 0 1 17.322667-79.402666 21.653333 21.653333 0 1 1 39.36 18.069333 145.962667 145.962667 0 0 0-13.354667 61.333333 21.610667 21.610667 0 0 1-21.653333 21.653334z" fill="#231815" p-id="1281"></path><path d="M615.914667 290.794667a14.357333 14.357333 0 0 1-13.845334-18.581334l32.149334-106.794666a14.464 14.464 0 0 1 13.845333-10.282667h84.48a14.442667 14.442667 0 1 1 0 28.885333h-73.749333l-29.077334 96.512a14.4 14.4 0 0 1-13.802666 10.261334z" fill="#231815" p-id="1282"></path></svg>