<?xml version="1.0" standalone="no"?><!DOCTYPE svg PUBLIC "-//W3C//DTD SVG 1.1//EN"
        "http://www.w3.org/Graphics/SVG/1.1/DTD/svg11.dtd">
<svg t="1623353324268" class="icon" viewBox="0 0 1024 1024" version="1.1" xmlns="http://www.w3.org/2000/svg"
     p-id="11937" xmlns:xlink="http://www.w3.org/1999/xlink" width="25" height="25">
    <defs>
        <style type="text/css"></style>
    </defs>
    <path d="M462.7968 127.2832L338.0736 251.2896a69.72416 69.72416 0 0 1-49.2032 20.2752H173.1072c-59.2896 0-107.3152 48.0256-107.3152 107.3152v264.6528c0 59.2896 48.0256 107.3152 107.3152 107.3152h121.7536c19.2 0 37.5296 7.8848 50.7392 21.8624l115.712 122.4192c43.3664 45.8752 120.4736 15.2064 120.4736-47.9232V176.7936c0-62.0544-74.9568-93.2352-118.9888-49.5104z"
          fill="#8C7BFD" p-id="11938"></path>
    <path d="M682.3424 732.672c-15.9744 0-31.6928-7.424-41.6768-21.4016-16.4352-22.9888-11.1616-54.9888 11.8272-71.424 40.6528-29.1328 64.9216-76.288 64.9216-126.2592 0-51.6096-25.6-99.6864-68.4032-128.6656-23.4496-15.8208-29.5936-47.6672-13.7728-71.0656 15.8208-23.4496 47.6672-29.5936 71.0656-13.7728 71.0656 48.0256 113.5104 127.8464 113.5104 213.504 0 82.8928-40.2944 161.1776-107.7248 209.5104a51.03616 51.03616 0 0 1-29.7472 9.5744z"
          fill="#FFE37B" p-id="11939"></path>
    <path d="M792.4736 838.7072c-13.824 0-27.648-5.5808-37.7344-16.5888-19.0976-20.8384-17.7152-53.248 3.1232-72.3456 67.072-61.5424 105.5232-149.0432 105.5232-240.0256 0-90.1632-35.9936-174.0288-101.376-236.1344-20.48-19.456-21.3504-51.8656-1.8432-72.3968 19.456-20.48 51.8656-21.3504 72.3968-1.8432 85.9648 81.664 133.2736 191.8976 133.2736 310.3744 0 119.6032-50.5344 234.5472-138.7008 315.4432a51.06176 51.06176 0 0 1-34.6624 13.5168z"
          fill="#FFE37B" p-id="11940"></path>
</svg>