<?xml version="1.0" standalone="no"?><!DOCTYPE svg PUBLIC "-//W3C//DTD SVG 1.1//EN" "http://www.w3.org/Graphics/SVG/1.1/DTD/svg11.dtd"><svg t="1623690270074" class="icon" viewBox="0 0 1024 1024" version="1.1" xmlns="http://www.w3.org/2000/svg" p-id="1598" xmlns:xlink="http://www.w3.org/1999/xlink" width="25" height="25"><defs><style type="text/css"></style></defs><path d="M227 624.5L424.5 427c14.8-14.8 38.9-14.8 53.7 0l322.4 322.4H227V624.5z" fill="#E4F7F9" p-id="1599"></path><path d="M607 920.5H417c-15.7 0-28.5-12.8-28.5-28.5s12.8-28.5 28.5-28.5h190c15.7 0 28.5 12.8 28.5 28.5s-12.8 28.5-28.5 28.5z" fill="#2EC99D" p-id="1600"></path><path d="M740 797H284c-47.1 0-85.5-38.4-85.5-85.5V474c0-167.6 136.4-304 304-304h19c167.6 0 304 136.4 304 304v237.5c0 47.1-38.4 85.5-85.5 85.5zM502.5 227c-136.2 0-247 110.8-247 247v237.5c0 15.7 12.8 28.5 28.5 28.5h456c15.7 0 28.5-12.8 28.5-28.5V474c0-136.2-110.8-247-247-247h-19z" fill="#0F1110" p-id="1601"></path><path d="M873 797H151c-15.7 0-28.5-12.8-28.5-28.5S135.3 740 151 740h722c15.7 0 28.5 12.8 28.5 28.5S888.7 797 873 797z" fill="#0F1110" p-id="1602"></path><path d="M477.8 160.5a34.2 57 0 1 0 68.4 0 34.2 57 0 1 0-68.4 0Z" fill="#0F1110" p-id="1603"></path></svg>