<?xml version="1.0" standalone="no"?><!DOCTYPE svg PUBLIC "-//W3C//DTD SVG 1.1//EN" "http://www.w3.org/Graphics/SVG/1.1/DTD/svg11.dtd"><svg t="1623690253407" class="icon" viewBox="0 0 1024 1024" version="1.1" xmlns="http://www.w3.org/2000/svg" p-id="1166" xmlns:xlink="http://www.w3.org/1999/xlink" width="25" height="25"><defs><style type="text/css"></style></defs><path d="M283 533.2l149.5-149.5c15.8-15.8 41.4-15.8 57.2 0L785 679.1H323c-22.1 0-40-17.9-40-40V533.2z" fill="#E4F7F9" p-id="1167"></path><path d="M330.5 891.7c-32.4 0-58.8-26.4-58.8-58.8s26.4-58.8 58.8-58.8 58.8 26.4 58.8 58.8-26.4 58.8-58.8 58.8z m0-60.6c-1 0-1.8 0.8-1.8 1.8 0 2.1 3.7 2 3.7 0-0.1-1-0.9-1.8-1.9-1.8zM765.1 891.7c-32.4 0-58.8-26.4-58.8-58.8s26.4-58.8 58.8-58.8 58.8 26.4 58.8 58.8-26.3 58.8-58.8 58.8z m0-60.6c-1 0-1.8 0.8-1.8 1.8 0 2 3.7 2.1 3.7 0-0.1-1-0.9-1.8-1.9-1.8z" fill="#0F1110" p-id="1168"></path><path d="M828.8 452.1H283c-15.7 0-28.5-12.8-28.5-28.5s12.8-28.5 28.5-28.5h545.8c15.7 0 28.5 12.8 28.5 28.5s-12.8 28.5-28.5 28.5z" fill="#2EC99D" p-id="1169"></path><path d="M849 330.8H283c-15.7 0-28.5-12.8-28.5-28.5s12.8-28.5 28.5-28.5h566c15.7 0 28.5 12.8 28.5 28.5s-12.8 28.5-28.5 28.5z" fill="#0F1110" p-id="1170"></path><path d="M756.5 714.8H343.7c-49.2 0-89.2-40-89.2-89.1V322c0-44.6-4.8-89.2-14.3-132.8h-98.7c-15.7 0-28.5-12.8-28.5-28.5s12.8-28.5 28.5-28.5h121.3c13 0 24.4 8.8 27.6 21.5 14 55 21.1 111.6 21.1 168.3v303.7c0 17.7 14.4 32.1 32.2 32.1h412.8c16 0 29.4-11.5 31.8-27.3l66.1-381.6c2.7-15.5 17.5-26.1 32.9-23.2 15.5 2.7 25.9 17.4 23.2 32.9l-66.1 381.1c-6.5 43.3-43.5 75.1-87.9 75.1z" fill="#0F1110" p-id="1171"></path></svg>