<?xml version="1.0" standalone="no"?><!DOCTYPE svg PUBLIC "-//W3C//DTD SVG 1.1//EN" "http://www.w3.org/Graphics/SVG/1.1/DTD/svg11.dtd"><svg t="1622157486942" class="icon" viewBox="0 0 1024 1024" version="1.1" xmlns="http://www.w3.org/2000/svg" p-id="972" xmlns:xlink="http://www.w3.org/1999/xlink" width="200" height="200"><defs><style type="text/css"></style></defs><path d="M808.8 662.5c-47.9 0-93.6-14.9-132.3-43l-17-12.3-17 12.3c-38.7 28.1-84.5 43-132.3 43-48.2 0-94.3-15.1-133.2-43.6l-17.1-12.5-17.1 12.5c-38.9 28.5-85 43.6-133.2 43.6-31.2 0-61.4-6.3-89.9-18.7l-40.4-17.6v190.4c0 106.2 86.4 192.6 192.6 192.6h476.6c106.2 0 192.6-86.4 192.6-192.6V624.9L900.4 643c-28.9 12.9-59.7 19.5-91.6 19.5zM1002.3 359.1c-0.5-2.3-1.3-5.1-2.3-8.4l0.2-0.1-1.4-3.6c-5.8-18.3-16-45.7-21.4-56l-58.5-153c-27.1-73.5-97.8-122.7-176-122.7h-464c-38.5 0-75.6 11.6-107.2 33.6-31.6 21.9-55.4 52.6-68.8 88.6l-59 153.4c-6.2 11.4-16.8 39.6-22.5 58.4l-0.5 1.2h0.1c-1.1 3.8-2.1 7.2-2.7 9.9-2.9 12.8-4.5 26.1-4.5 39.8 0 98.3 80.1 178.3 178.5 178.3 69.3 0 129.4-39.6 159-97.3 29.6 57.7 89.8 97.3 159 97.3 69.3 0 129.4-39.6 159-97.3 29.6 57.7 89.8 97.3 159 97.3 98.4 0 178.5-80 178.5-178.3 0.3-14.2-1.3-27.9-4.5-41.1z" fill="#444444" p-id="973"></path></svg>