<?xml version="1.0" standalone="no"?><!DOCTYPE svg PUBLIC "-//W3C//DTD SVG 1.1//EN" "http://www.w3.org/Graphics/SVG/1.1/DTD/svg11.dtd"><svg t="1624817732597" class="icon" viewBox="0 0 1024 1024" version="1.1" xmlns="http://www.w3.org/2000/svg" p-id="2400" xmlns:xlink="http://www.w3.org/1999/xlink" width="25" height="25"><defs><style type="text/css"></style></defs><path d="M512 815.995259c0-17.673481 14.336-31.990519 32.009481-31.990518h283.989334a32.009481 32.009481 0 0 1 0 64H543.990519A32.009481 32.009481 0 0 1 512 815.976296z" fill="#FD6112" fill-opacity=".5" p-id="2401"></path><path d="M557.416296 235.633778l163.233185 163.233185a18.962963 18.962963 0 0 1 0.455112 26.339556l-381.914074 409.808592c-6.030222 6.504296-14.52563 10.183111-23.400297 10.183111H162.853926a32.009481 32.009481 0 0 1-31.990519-31.990518V659.342222c0-8.343704 3.242667-16.346074 9.064297-22.319407L530.394074 235.804444a18.962963 18.962963 0 0 1 27.003259-0.189629z m135.395556-137.91763c17.578667 0 34.455704 6.997333 46.876444 19.437037l93.790815 93.771852a66.294519 66.294519 0 0 1 0 93.714963l-42.837333 45.947259a18.962963 18.962963 0 0 1-27.268741 0.493037l-163.422815-163.422815a16.327111 16.327111 0 0 1-0.113778-22.983111l46.061037-47.521185a66.294519 66.294519 0 0 1 46.895408-19.437037z" fill="#FD6112" p-id="2402"></path></svg>