<?xml version="1.0" standalone="no"?><!DOCTYPE svg PUBLIC "-//W3C//DTD SVG 1.1//EN" "http://www.w3.org/Graphics/SVG/1.1/DTD/svg11.dtd"><svg t="1635043121550" class="icon" viewBox="0 0 1024 1024" version="1.1" xmlns="http://www.w3.org/2000/svg" p-id="2007" xmlns:xlink="http://www.w3.org/1999/xlink" width="25" height="25"><defs><style type="text/css"></style></defs><path d="M802.36 921.58H223.94c-65.9 0-119.33-53.43-119.33-119.33V223.83c0-65.9 53.43-119.33 119.33-119.33h578.42c65.9 0 119.33 53.43 119.33 119.33v578.42c0 65.9-53.42 119.33-119.33 119.33z" fill="#2AA9CC" p-id="2008"></path><path d="M689.55 707.79c-21.03 0-38.08-17.05-38.08-38.08v-173c0-21.03 17.05-38.08 38.08-38.08s38.08 17.05 38.08 38.08v173c0 21.03-17.05 38.08-38.08 38.08z" fill="#DAEBEE" p-id="2009"></path><path d="M513.15 707.79c-21.03 0-38.08-17.05-38.08-38.08V388.32c0-21.03 17.05-38.08 38.08-38.08s38.08 17.05 38.08 38.08v281.39c0.01 21.03-17.04 38.08-38.08 38.08z" fill="#84CEE2" p-id="2010"></path><path d="M336.76 707.79c-21.03 0-38.08-17.05-38.08-38.08V550.9c0-21.03 17.05-38.08 38.08-38.08s38.08 17.05 38.08 38.08v118.81c0 21.03-17.05 38.08-38.08 38.08z" fill="#DAEBEE" p-id="2011"></path></svg>