<?xml version="1.0" standalone="no"?><!DOCTYPE svg PUBLIC "-//W3C//DTD SVG 1.1//EN" "http://www.w3.org/Graphics/SVG/1.1/DTD/svg11.dtd"><svg t="1624817695985" class="icon" viewBox="0 0 1024 1024" version="1.1" xmlns="http://www.w3.org/2000/svg" p-id="983" xmlns:xlink="http://www.w3.org/1999/xlink" width="25" height="25"><defs><style type="text/css"></style></defs><path d="M310.234074 183.182222l7.812741 28.103111a95.990519 95.990519 0 0 0 92.501333 70.314667h218.908445a95.990519 95.990519 0 0 0 92.501333-70.314667l7.793778-28.103111h58.405926a75.851852 75.851852 0 0 1 75.851851 75.851852v570.709333a75.851852 75.851852 0 0 1-75.851851 75.851852H251.828148a75.851852 75.851852 0 0 1-75.851852-75.851852V259.053037a75.851852 75.851852 0 0 1 75.851852-75.851852h58.368z m334.848 397.179259H394.903704a31.288889 31.288889 0 0 0 0 62.539852h250.17837a31.288889 31.288889 0 0 0 0-62.539852z m0-140.724148H394.903704a31.288889 31.288889 0 0 0 0 62.539852h250.17837a31.288889 31.288889 0 0 0 0-62.539852zM378.500741 189.819259a37.925926 37.925926 0 0 0 33.564444 27.666963l2.977185 0.113778h-4.494222a31.990519 31.990519 0 0 1-30.833778-23.438222l-1.213629-4.342519z m282.984296 0l-1.194667 4.361482a31.990519 31.990519 0 0 1-30.833777 23.419259h-4.513186a37.925926 37.925926 0 0 0 35.650371-24.936296l0.891259-2.844445z" fill="#279CFF" p-id="984"></path><path d="M397.899852 80.004741H642.085926a37.925926 37.925926 0 0 1 36.54163 48.071111l-17.161482 61.743407a37.925926 37.925926 0 0 1-36.54163 27.780741H415.04237a37.925926 37.925926 0 0 1-36.541629-27.780741l-17.142519-61.743407a37.925926 37.925926 0 0 1 36.54163-48.071111z" fill="#279CFF" fill-opacity=".5" p-id="985"></path></svg>