<?xml version="1.0" standalone="no"?><!DOCTYPE svg PUBLIC "-//W3C//DTD SVG 1.1//EN" "http://www.w3.org/Graphics/SVG/1.1/DTD/svg11.dtd"><svg t="1635042427364" class="icon" viewBox="0 0 1024 1024" version="1.1" xmlns="http://www.w3.org/2000/svg" p-id="1305" xmlns:xlink="http://www.w3.org/1999/xlink" width="25" height="25"><defs><style type="text/css"></style></defs><path d="M337.87 943.9V324.7h468.59c68.57 0 124.16 55.59 124.16 124.16v370.88c0 68.57-55.59 124.16-124.16 124.16H337.87z" fill="#D8C8E2" p-id="1306"></path><path d="M739.77 943.9H222.32c-69.93 0-126.63-56.69-126.63-126.63V206.81c0-69.93 56.69-126.63 126.63-126.63h390.82c69.93 0 126.63 56.69 126.63 126.63V943.9z" fill="#9678B8" p-id="1307"></path><path d="M534.97 441.73H298.14c-21.03 0-38.08-17.05-38.08-38.08s17.05-38.08 38.08-38.08h236.84c21.03 0 38.08 17.05 38.08 38.08s-17.05 38.08-38.09 38.08zM534.97 644.18H298.14c-21.03 0-38.08-17.05-38.08-38.08s17.05-38.08 38.08-38.08h236.84c21.03 0 38.08 17.05 38.08 38.08s-17.05 38.08-38.09 38.08z" fill="#ECE7EF" p-id="1308"></path></svg>