<?xml version="1.0" standalone="no"?><!DOCTYPE svg PUBLIC "-//W3C//DTD SVG 1.1//EN" "http://www.w3.org/Graphics/SVG/1.1/DTD/svg11.dtd"><svg t="1624817747277" class="icon" viewBox="0 0 1024 1024" version="1.1" xmlns="http://www.w3.org/2000/svg" p-id="2666" xmlns:xlink="http://www.w3.org/1999/xlink" width="25" height="25"><defs><style type="text/css"></style></defs><path d="M377.552593 590.468741a57.192296 57.192296 0 0 0-20.954074 78.127407l106.211555 183.959704a57.192296 57.192296 0 1 0 99.062519-57.192296l-106.211556-183.959704a57.192296 57.192296 0 0 0-78.127407-20.935111z" fill="#FD6112" fill-opacity=".5" p-id="2667"></path><path d="M891.031704 210.450963a75.851852 75.851852 0 0 1 4.968296 27.003259v449.820445a75.851852 75.851852 0 0 1-102.855111 70.883555l-240.298667-91.534222V258.085926l240.298667-91.534222a75.851852 75.851852 0 0 1 97.886815 43.880296z m-403.531852 47.653926v408.519111H332.231111c-112.810667 0-204.250074-91.45837-204.250074-204.250074 0-112.82963 91.439407-204.269037 204.250074-204.269037h155.230815z" fill="#FD6112" p-id="2668"></path></svg>