<?xml version="1.0" standalone="no"?><!DOCTYPE svg PUBLIC "-//W3C//DTD SVG 1.1//EN" "http://www.w3.org/Graphics/SVG/1.1/DTD/svg11.dtd"><svg t="1635042406356" class="icon" viewBox="0 0 1024 1024" version="1.1" xmlns="http://www.w3.org/2000/svg" p-id="887" xmlns:xlink="http://www.w3.org/1999/xlink" width="25" height="25"><defs><style type="text/css"></style></defs><path d="M859.73 756.36H164.58v-330.8c0-191.96 155.61-347.57 347.57-347.57 191.96 0 347.57 155.61 347.57 347.57v330.8z" fill="#F55965" p-id="888"></path><path d="M512.15 946.09c-98.28 0-177.96-79.67-177.96-177.95V595.13c0-98.28 79.67-177.95 177.95-177.95 98.28 0 177.95 79.67 177.95 177.95v173.01c0.02 98.28-79.65 177.95-177.94 177.95z" fill="#F55965" p-id="889"></path><path d="M883.7 825.81H140.61c-21.03 0-38.08-17.05-38.08-38.08s17.05-38.08 38.08-38.08H883.7c21.03 0 38.08 17.05 38.08 38.08s-17.05 38.08-38.08 38.08z" fill="#F3ADAE" p-id="890"></path></svg>