<?xml version="1.0" standalone="no"?><!DOCTYPE svg PUBLIC "-//W3C//DTD SVG 1.1//EN" "http://www.w3.org/Graphics/SVG/1.1/DTD/svg11.dtd"><svg t="1635042438341" class="icon" viewBox="0 0 1024 1024" version="1.1" xmlns="http://www.w3.org/2000/svg" p-id="1586" xmlns:xlink="http://www.w3.org/1999/xlink" width="25" height="25"><defs><style type="text/css"></style></defs><path d="M840.68 939.92H183.62c-33.02 0-59.8-26.77-59.8-59.8V368.46c0-33.02 26.77-59.8 59.8-59.8h657.06c33.02 0 59.8 26.77 59.8 59.8v511.66c0 33.03-26.77 59.8-59.8 59.8z" fill="#2AA9CC" p-id="1587"></path><path d="M980.49 420.85L898.53 206.2H125.78L43.82 420.85c0 66.35 50.74 117.08 117.08 117.08s117.08-50.74 117.08-117.08c0 42.93 23.42 81.96 58.54 101.47 35.13 19.51 81.96 19.51 117.08 0 35.13-19.51 58.54-58.54 58.54-101.47 0 42.93 19.51 81.96 58.54 105.38 35.13 23.42 81.96 23.42 117.08 0 35.13-19.51 54.64-58.54 58.54-97.57v-7.81 7.81c0 39.03 23.42 78.06 58.54 97.57 35.13 23.42 81.96 23.42 120.99 0 35.14-23.42 54.66-62.45 54.66-105.38zM386.49 599.58h251.33v340.34H386.49zM826.88 162.32H197.43c-21.03 0-38.08-17.05-38.08-38.08s17.05-38.08 38.08-38.08h629.45c21.03 0 38.08 17.05 38.08 38.08s-17.05 38.08-38.08 38.08z" fill="#84CEE2" p-id="1588"></path></svg>