<?xml version="1.0" standalone="no"?><!DOCTYPE svg PUBLIC "-//W3C//DTD SVG 1.1//EN" "http://www.w3.org/Graphics/SVG/1.1/DTD/svg11.dtd"><svg t="1624817742266" class="icon" viewBox="0 0 1024 1024" version="1.1" xmlns="http://www.w3.org/2000/svg" p-id="2533" xmlns:xlink="http://www.w3.org/1999/xlink" width="25" height="25"><defs><style type="text/css"></style></defs><path d="M788.15763 544.009481a75.851852 75.851852 0 0 1 75.851851 75.851852v168.277334a75.851852 75.851852 0 0 1-75.851851 75.851852h-168.31526a75.851852 75.851852 0 0 1-75.851851-75.851852v-168.277334a75.851852 75.851852 0 0 1 75.851851-75.851852h168.31526z m-384 0a75.851852 75.851852 0 0 1 75.851851 75.851852v168.277334a75.851852 75.851852 0 0 1-75.851851 75.851852h-168.296297a75.851852 75.851852 0 0 1-75.851852-75.851852v-168.277334a75.851852 75.851852 0 0 1 75.851852-75.851852h168.277334z m384-384a75.851852 75.851852 0 0 1 75.851851 75.851852v168.277334a75.851852 75.851852 0 0 1-75.851851 75.851852h-168.31526a75.851852 75.851852 0 0 1-75.851851-75.851852v-168.296297a75.851852 75.851852 0 0 1 75.851851-75.851851h168.31526z" fill="#FEA917" p-id="2534"></path><path d="M320 159.990519c17.673481 0 32.009481 14.336 32.009481 32.009481v96.009481h95.990519a32.009481 32.009481 0 0 1 0 63.981038h-96.009481v96.009481a32.009481 32.009481 0 0 1-64 0v-96.009481h-95.990519a31.990519 31.990519 0 1 1 0-64h96.009481v-95.990519c0-17.673481 14.317037-32.009481 31.990519-32.009481z" fill="#FFA500" fill-opacity=".5" p-id="2535"></path></svg>