<?xml version="1.0" standalone="no"?><!DOCTYPE svg PUBLIC "-//W3C//DTD SVG 1.1//EN" "http://www.w3.org/Graphics/SVG/1.1/DTD/svg11.dtd"><svg t="1619938753211" class="icon" viewBox="0 0 1024 1024" version="1.1" xmlns="http://www.w3.org/2000/svg" p-id="1393" xmlns:xlink="http://www.w3.org/1999/xlink" width="200" height="200"><defs><style type="text/css"></style></defs><path d="M827.5 508.5c-1.7-12-4.1-23.9-8-35.4-8.6-25.5-19.8-51.1-36-72.8-10.7-14.3-21.4-28.9-34.2-41.4-12.5-12.3-26.9-22.8-41-33.2-22-16.2-48.3-27.5-74-36.1-9-3-18.2-5.3-27.6-6.8-18-2.8-36.5-5.9-54.9-5.6-27.6 0.4-56.5 4.5-82.6 13.7-21.2 7.5-42.7 16.4-61.9 28.5-4.1-0.4-8.1-0.6-12.2-0.5-13.9 0.2-27.8 2.7-41.4 5-18.4 3.1-36.1 11.5-52.6 19.6-17.1 8.4-32.3 21.1-47 32.9-23.5 18.9-42 42.7-60.3 66.6-18.9 24.8-33.5 54.5-40.2 85-6.6 29.9-9.5 61.2-5.6 91.7 3.6 28.3 7.6 55.1 18.5 81.6 10.5 25.6 21.2 50.4 37.5 72.9 16.2 22.4 33.4 44.4 54.4 62.6 20.8 17.9 43.2 35.2 67.8 47.7 25.5 13 53 24.3 81.1 30.4 58.3 12.8 117.4 12.1 175.5-2 28.5-6.9 56.3-18.4 82.5-31.4 26.6-13.1 50.7-30.9 73.2-50 8.3-7.1 15.9-14.8 22.7-23.4 8.1-10.3 16.8-20.5 23.6-31.8 7.3-12.2 12.7-26.7 17.9-39.5 8.9-22.1 13.7-45.9 18.3-69.2 6.4-32.3 11.6-65.6 12-98.6 0.3-20.2-2.6-40.2-5.5-60.5z" fill="#411435" p-id="1394"></path><path d="M830.8 512.8c-1.7-12-4.1-23.9-8-35.4-8.6-25.5-19.8-51.1-36-72.8-10.7-14.3-21.4-28.9-34.2-41.4-3.2-3.2-6.6-6.2-10-9.1 5.6 7 10.9 14.1 16.2 21.2 16.2 21.7 27.4 47.3 36 72.8 3.9 11.5 6.3 23.4 8 35.4 2.8 20.3 5.8 40.2 5.5 60.7-0.4 33-5.6 66.3-12 98.6-4.6 23.3-9.4 47.1-18.3 69.2-5.1 12.8-10.5 27.3-17.9 39.5-6.8 11.3-15.4 21.5-23.6 31.8-6.8 8.6-14.3 16.3-22.7 23.4-22.5 19.1-46.7 36.9-73.2 50-26.3 12.9-54 24.4-82.5 31.4-58.1 14.1-117.2 14.7-175.5 2-28.1-6.1-55.6-17.4-81.1-30.4-24.6-12.5-47-29.8-67.8-47.7l-2.7-2.4c9.4 11.3 19.5 22.1 30.7 31.7 20.8 17.9 43.2 35.2 67.8 47.7 25.5 13 53 24.3 81.1 30.4 58.3 12.8 117.4 12.1 175.5-2 28.5-6.9 56.3-18.4 82.5-31.4 26.6-13.1 50.7-30.9 73.2-50 8.3-7.1 15.9-14.8 22.7-23.4 8.1-10.3 16.8-20.5 23.6-31.8 7.3-12.2 12.7-26.7 17.9-39.5 8.9-22.1 13.7-45.9 18.3-69.2 6.4-32.3 11.6-65.6 12-98.6 0.3-20.5-2.6-40.5-5.5-60.7z" fill="#23001D" p-id="1395"></path><path d="M585.4 240.5c-10.1-18.7-28-30.4-47.5-37.4-8-2.9-17.3-3.6-25.7-4.2-9.7-0.6-19.8 1.3-29.3 2.6-9.2 1.3-18.3 2.7-27.4 4.7-27.4 6-54.7 18.4-74.3 38.9-6.2 6.5-10.9 14.4-13.4 23-1.6 2-3.1 4.1-4.2 6.1-6.7 11.4-9.5 28.3-5.4 41.1 4.2 12.9 12.2 25.3 24.5 31.9 13.3 7 26.3 8.1 41.1 5.4 4.9-0.9 9.9-1.7 14.8-2.5 19.6-2.2 39.4-3.1 59.2-2.6 13.9 0.4 26.3 0.8 40.2-1.6 19.6-3.3 38.3-17.1 47.8-34.4 12.3-22.1 11.5-48.9-0.4-71z" fill="#6CBB50" p-id="1396"></path><path d="M439.1 277.8c-2.4-8.1-6.6-15.7-12.9-21.5-10.9-10-22.9-14.5-37.7-15.6-27.6-2.1-54.6-2.7-81.9 3.2-13.6 2.9-27.1 8.4-39.2 14.9-11.8 6.4-23.6 15.1-32.2 25.5-10.6 12.8-18.9 27.5-18.5 44.7 0.3 13.1 3.6 25.8 10.8 36.8 11.1 17.2 28.4 29.6 48.3 34.8 15.1 3.9 29.5 3.9 44.6 1.9 12.2-1.6 23.9-3.8 35.5-8 29-10.6 55.5-26.4 76.8-49.1 9.5-10.2 15.6-23.6 15.6-37.7-0.1-9.8-3.4-21.1-9.2-29.9z" fill="#6FC155" p-id="1397"></path><path d="M420.4 124.8c-9.1-8.3-24.5-9.8-33.4 0-32.1 35.3-44.5 86.7-29.6 132.4 3.8 11.7 16.5 20.6 29.1 16.5 11.7-3.8 20.6-16.5 16.5-29.1-1.5-4.7-2.8-9.4-3.7-14.2-0.1-0.7-0.2-1.4-0.4-2.1-0.1-2-0.4-4.1-0.5-6.1-0.2-4.9-0.1-9.8 0.3-14.6 0-0.4 0.1-1.2 0.1-1.9 0.2-2.1 0.8-4.3 1.2-6.3 0.9-4.2 2-8.3 3.4-12.4 0.6-1.9 1.2-3.8 2-5.6 0.6-1.2 1.7-3.4 2-3.9 1.9-3.8 4.1-7.5 6.5-11.1 0.5-0.8 4-5.2 3-4.1 1.2-1.4 2.3-2.7 3.5-4.1 8.3-9.1 9.7-24.5 0-33.4z" fill="#6FC155" p-id="1398"></path><path d="M491 244.3c-27.5-26.5-70.7-29.6-106.2-22-30.4 6.5-61.6 25.9-75.4 53.3-3.6 4.1-6.6 8.8-8.9 13.7-9.2 15.9-10.1 35.7-0.3 53.3 19.2 34.4 58.4 48 95.9 47.3 32.8-0.6 68.4-6 92.4-30.7 30.1-31.2 35.1-83.4 2.5-114.9z" fill="#9FD827" p-id="1399"></path><path d="M227.1 460.4c-7.7 10.9-13.1 23.2-16.1 36.2-2.2 9.4 12.3 13.4 14.5 4 2.7-11.9 7.6-22.7 14.6-32.6 5.5-8-7.5-15.5-13-7.6zM209.3 539.2c-9.7 0-9.7 15 0 15s9.7-15 0-15z" fill="#FFFFFF" p-id="1400"></path></svg>