<?xml version="1.0" standalone="no"?><!DOCTYPE svg PUBLIC "-//W3C//DTD SVG 1.1//EN" "http://www.w3.org/Graphics/SVG/1.1/DTD/svg11.dtd"><svg t="1623691608126" class="icon" viewBox="0 0 1024 1024" version="1.1" xmlns="http://www.w3.org/2000/svg" p-id="2330" xmlns:xlink="http://www.w3.org/1999/xlink" width="20" height="20"><defs><style type="text/css"></style></defs><path d="M648 803.6c7.1-25.4 10.9-52.1 10.9-79.7 0-162.6-131.8-294.4-294.4-294.4-97.5 0-183.9 47.4-237.4 120.3 0 0 82.3 440.9 520.9 253.8z" fill="#E4F7F9" p-id="2331"></path><path d="M896.9 851.2c-5.8 0-11.7-1.8-16.7-5.4L732.4 738.5c-12.7-9.3-15.5-27.1-6.3-39.8 9.2-12.7 27.1-15.6 39.8-6.3l147.7 107.3c12.7 9.3 15.5 27.1 6.3 39.8-5.5 7.6-14.2 11.7-23 11.7z" fill="#2EC99D" p-id="2332"></path><path d="M469.1 882.5C264.8 882.5 98.6 716.3 98.6 512s166.2-370.5 370.5-370.5S839.6 307.7 839.6 512 673.4 882.5 469.1 882.5z m0-684c-172.9 0-313.5 140.6-313.5 313.5s140.6 313.5 313.5 313.5S782.6 684.9 782.6 512 641.9 198.5 469.1 198.5z" fill="#0F1110" p-id="2333"></path></svg>