<?xml version="1.0" standalone="no"?><!DOCTYPE svg PUBLIC "-//W3C//DTD SVG 1.1//EN" "http://www.w3.org/Graphics/SVG/1.1/DTD/svg11.dtd"><svg t="1623690300411" class="icon" viewBox="0 0 1024 1024" version="1.1" xmlns="http://www.w3.org/2000/svg" p-id="1892" xmlns:xlink="http://www.w3.org/1999/xlink" width="25" height="25"><defs><style type="text/css"></style></defs><path d="M830.5 911.4H251.6c-15.7 0-28.5-12.8-28.5-28.5s12.8-28.5 28.5-28.5h578.8c15.7 0 28.5 12.8 28.5 28.5 0.1 15.8-12.7 28.5-28.4 28.5z" fill="#2EC99D" p-id="1893"></path><path d="M501 595.5c5 98.5-70.8 182.3-169.3 187.3-41.6 2.1-80.6-10.2-112.2-32.6 1.8 1.3-28.3-53.8-3.8-140.3 21.4-75.3 98-183.7 98-183.7C412.2 421.3 496 497 501 595.5z" fill="#E4F7F9" p-id="1894"></path><path d="M242.5 901.8c-5.1 0-10.2-1.4-14.7-4.1-6.7-4.1-11.4-10.7-13.1-18.4l-49-225.5c-1.5-7.1-0.3-14.6 3.5-20.8l306.4-506.7c8.1-13.5 25.6-17.8 39.1-9.6l271.6 164c6.5 3.9 11.1 10.2 12.9 17.6 1.8 7.3 0.6 15.1-3.3 21.6L489.5 826.5c-3.8 6.2-9.8 10.8-16.8 12.7l-222.6 61.6c-2.5 0.7-5 1-7.6 1z m-18.7-249l40.2 185 182.7-50.5 285.8-472.6-222.9-134.5-285.8 472.6z" fill="#0F1110" p-id="1895"></path></svg>