<?xml version="1.0" standalone="no"?><!DOCTYPE svg PUBLIC "-//W3C//DTD SVG 1.1//EN" "http://www.w3.org/Graphics/SVG/1.1/DTD/svg11.dtd"><svg t="1623690247932" class="icon" viewBox="0 0 1024 1024" version="1.1" xmlns="http://www.w3.org/2000/svg" p-id="1019" xmlns:xlink="http://www.w3.org/1999/xlink" width="25" height="25"><defs><style type="text/css"></style></defs><path d="M430.7 873.8H153.2c-1.7 0-3-1.3-3-3V593.3c0-1.7 1.3-3 3-3h277.5c1.7 0 3 1.3 3 3v277.5c0 1.6-1.3 3-3 3z" fill="#E4F7F9" p-id="1020"></path><path d="M697 532.3c-21.9 0-43.8-8.3-60.5-25L516.7 387.5c-33.3-33.3-33.3-87.6 0-120.9l119.8-119.8c33.3-33.3 87.6-33.3 120.9 0l119.8 119.9c33.3 33.3 33.3 87.6 0 120.9L757.4 507.3c-16.7 16.7-38.6 25-60.4 25z m0-353.6c-7.3 0-14.6 2.8-20.2 8.3L557 306.9c-11.1 11.1-11.1 29.2 0 40.3L676.8 467c11.1 11.1 29.2 11.1 40.3 0L837 347.2c11.1-11.1 11.1-29.2 0-40.3L717.1 187c-5.5-5.5-12.8-8.3-20.1-8.3z" fill="#2EC99D" p-id="1021"></path><path d="M670.7 590.3c32.1 61 50.3 130.5 50.3 204.2 0 27.1-2.4 53.5-7.1 79.3H605c-19.9 0-36-16.1-36-36V623.6c0-16 12.6-29.2 28.6-30l73.1-3.3zM147.7 376.2c42.3-13.6 87.4-20.9 134.2-20.9 53.4 0 104.6 9.5 151.9 27v30c0 27.5-22.3 49.7-49.7 49.7H175.5c-13.7 0-24.9-10.8-25.4-24.4l-2.4-61.4z" fill="#E4F7F9" p-id="1022"></path><path d="M781.7 902.2H612.2c-47.1 0-85.5-38.4-85.5-85.5V647.3c0-47.1 38.4-85.5 85.5-85.5h169.5c47.1 0 85.5 38.4 85.5 85.5v169.5c0 47.1-38.4 85.4-85.5 85.4zM612.2 618.8c-15.7 0-28.5 12.8-28.5 28.5v169.5c0 15.7 12.8 28.5 28.5 28.5h169.5c15.7 0 28.5-12.8 28.5-28.5V647.3c0-15.7-12.8-28.5-28.5-28.5H612.2zM376.7 497.3H207.2c-47.1 0-85.5-38.4-85.5-85.5V242.3c0-47.1 38.4-85.5 85.5-85.5h169.5c47.1 0 85.5 38.4 85.5 85.5v169.5c0 47.1-38.3 85.5-85.5 85.5zM207.2 213.8c-15.7 0-28.5 12.8-28.5 28.5v169.5c0 15.7 12.8 28.5 28.5 28.5h169.5c15.7 0 28.5-12.8 28.5-28.5V242.3c0-15.7-12.8-28.5-28.5-28.5H207.2zM376.7 902.2H207.2c-47.1 0-85.5-38.4-85.5-85.5V647.3c0-47.1 38.4-85.5 85.5-85.5h169.5c47.1 0 85.5 38.4 85.5 85.5v169.5c0 47.1-38.3 85.4-85.5 85.4zM207.2 618.8c-15.7 0-28.5 12.8-28.5 28.5v169.5c0 15.7 12.8 28.5 28.5 28.5h169.5c15.7 0 28.5-12.8 28.5-28.5V647.3c0-15.7-12.8-28.5-28.5-28.5H207.2z" fill="#0F1110" p-id="1023"></path></svg>