<?xml version="1.0" standalone="no"?><!DOCTYPE svg PUBLIC "-//W3C//DTD SVG 1.1//EN" "http://www.w3.org/Graphics/SVG/1.1/DTD/svg11.dtd"><svg t="1623690309037" class="icon" viewBox="0 0 1024 1024" version="1.1" xmlns="http://www.w3.org/2000/svg" p-id="2038" xmlns:xlink="http://www.w3.org/1999/xlink" width="25" height="25"><defs><style type="text/css"></style></defs><path d="M475.4 805.5c56.9-43.4 93.6-111.9 93.6-189C569 485.3 462.7 379 331.5 379S94 485.3 94 616.5c0 34.7 7.4 67.6 20.8 97.3H379l96.4 91.7z" fill="#E4F7F9" p-id="2039"></path><path d="M512 873.2c-15.2 0-29.8-6.5-40.1-17.7l-99-108.9H151c-47.1 0-85.5-38.4-85.5-85.5V236.3c0-47.1 38.4-85.5 85.5-85.5h722c47.1 0 85.5 38.4 85.5 85.5v424.8c0 47.1-38.4 85.5-85.5 85.5H651.1l-99 108.9c-10.3 11.2-24.9 17.7-40.1 17.7zM151 207.8c-15.7 0-28.5 12.8-28.5 28.5v424.8c0 15.7 12.8 28.5 28.5 28.5h234.5c8 0 15.7 3.4 21.1 9.3L512 814.8l105.4-115.9c5.4-5.9 13.1-9.3 21.1-9.3H873c15.7 0 28.5-12.8 28.5-28.5V236.3c0-15.7-12.8-28.5-28.5-28.5H151z" fill="#0F1110" p-id="2040"></path><path d="M540.5 398h-285c-15.7 0-28.5-12.8-28.5-28.5s12.8-28.5 28.5-28.5h285c15.7 0 28.5 12.8 28.5 28.5S556.2 398 540.5 398zM350.5 512h-95c-15.7 0-28.5-12.8-28.5-28.5s12.8-28.5 28.5-28.5h95c15.7 0 28.5 12.8 28.5 28.5S366.2 512 350.5 512z" fill="#2EC99D" p-id="2041"></path></svg>