<?xml version="1.0" standalone="no"?><!DOCTYPE svg PUBLIC "-//W3C//DTD SVG 1.1//EN" "http://www.w3.org/Graphics/SVG/1.1/DTD/svg11.dtd"><svg t="1624205560706" class="icon" viewBox="0 0 1024 1024" version="1.1" xmlns="http://www.w3.org/2000/svg" p-id="1019" xmlns:xlink="http://www.w3.org/1999/xlink" width="25" height="25"><defs><style type="text/css"></style></defs><path d="M524.7 817.1c40.3-42.9 64.8-100.8 64.3-164.3-1-131.2-108.1-236.7-239.3-235.7-131.2 1-236.7 108.1-235.7 239.3l1 135.3 45.6 27 364.1-1.6z" fill="#E4F7F9" p-id="1020"></path><path d="M171.8 847c-22.6 0-43.9-8.7-60-24.6-16.3-16-25.3-37.4-25.5-60.3l-3.7-494c-0.2-22.8 8.6-44.4 24.6-60.6 16-16.3 37.4-25.3 60.3-25.5l684-5.1c23.1 0.1 44.4 8.6 60.6 24.6 16.3 16 25.3 37.4 25.5 60.3l3.7 494c0.2 22.8-8.6 44.4-24.6 60.6-16 16.3-37.4 25.3-60.3 25.5l-684 5.1h-0.6z m680.3-613h-0.2l-684 5.1c-7.6 0.1-14.7 3.1-20.1 8.5-5.3 5.4-8.3 12.6-8.2 20.2l3.7 494c0.1 7.6 3.1 14.8 8.5 20.1 5.4 5.3 12.5 8.2 20 8.2h0.2l684-5.1c7.6-0.1 14.8-3.1 20.1-8.5 5.3-5.4 8.2-12.6 8.2-20.2l-3.7-494c-0.1-7.6-3.1-14.7-8.5-20.1-5.3-5.3-12.4-8.2-20-8.2z" fill="#0F1110" p-id="1021"></path><path d="M692.5 653.2c-78.1 0-141.9-63.2-142.5-141.4-0.6-78.6 62.9-143 141.4-143.6l218.5-1.6h0.2c15.6 0 28.4 12.6 28.5 28.3l1.7 228c0.1 7.6-2.9 14.8-8.2 20.2-5.3 5.4-12.5 8.4-20.1 8.5l-218.5 1.6h-1z m189.4-229.5l-190 1.4c-47.1 0.4-85.2 39-84.9 86.2 0.4 47.1 38.8 86 86.2 84.9l190-1.4-1.3-171.1z" fill="#2EC99D" p-id="1022"></path></svg>