<?xml version="1.0" standalone="no"?><!DOCTYPE svg PUBLIC "-//W3C//DTD SVG 1.1//EN" "http://www.w3.org/Graphics/SVG/1.1/DTD/svg11.dtd"><svg t="1617088377363" class="icon" viewBox="0 0 1024 1024" version="1.1" xmlns="http://www.w3.org/2000/svg" p-id="2825" xmlns:xlink="http://www.w3.org/1999/xlink" width="200" height="200"><defs><style type="text/css"></style></defs><path d="M512.003 512.003m-491.986961 0a491.986961 491.986961 0 1 0 983.973922 0 491.986961 491.986961 0 1 0-983.973922 0Z" fill="#FDDF6D" p-id="2826"></path><path d="M617.431206 931.355819c-271.716531 0-491.984961-220.26843-491.984961-491.984961 0-145.168284 62.886123-275.632538 162.888318-365.684714-159.280311 81.438159-268.320524 247.140483-268.320524 438.312856 0 271.716531 220.26843 491.984961 491.984961 491.984961 126.548247 0 241.924473-47.794093 329.096643-126.298247-67.100131 34.312067-143.12228 53.670105-223.664437 53.670105z" fill="#FCC56B" p-id="2827"></path><path d="M426.312833 359.704703m-60.044118 0a60.044117 60.044117 0 1 0 120.088235 0 60.044117 60.044117 0 1 0-120.088235 0Z" fill="#FFFFFF" p-id="2828"></path><path d="M764.373493 359.704703m-60.044117 0a60.044117 60.044117 0 1 0 120.088234 0 60.044117 60.044117 0 1 0-120.088234 0Z" fill="#FFFFFF" p-id="2829"></path><path d="M300.574587 481.542941c-36.536071 0-66.158129 29.618058-66.158129 66.158129h132.312258c0.004-36.540071-29.618058-66.158129-66.154129-66.158129zM877.629714 472.676923c-36.536071 0-66.158129 29.618058-66.158129 66.156129h132.312258c0.002-36.534071-29.616058-66.156129-66.154129-66.156129z" fill="#F9A880" p-id="2830"></path><path d="M715.161397 780.223524a20.010039 20.010039 0 0 1-17.504034-10.28002c-18.764037-33.684066-54.342106-54.606107-92.852182-54.606107-37.528073 0-73.512144 21.136041-93.908183 55.158108-5.686011 9.478019-17.976035 12.558025-27.458054 6.874013s-12.558025-17.978035-6.874013-27.458053c27.590054-46.01809 76.73015-74.606146 128.24425-74.606146 53.020104 0 102.000199 28.800056 127.81825 75.160147 5.380011 9.658019 1.914004 21.846043-7.744015 27.226053a19.940039 19.940039 0 0 1-9.722019 2.532005z" fill="#7F184C" p-id="2831"></path><path d="M750.475466 58.816115c-9.786019-5.15801-21.886043-1.406003-27.038053 8.368016-5.15801 9.778019-1.410003 21.882043 8.368016 27.038053 155.540304 82.01216 252.166493 242.094473 252.166493 417.776816 0 260.246508-211.726414 471.970922-471.970922 471.970922S40.030078 772.247508 40.030078 511.999 251.754492 40.030078 511.999 40.030078c11.056022 0 20.014039-8.962018 20.014039-20.014039S523.055022 0 511.999 0C229.680449 0 0 229.682449 0 511.999s229.680449 511.999 511.999 511.999 511.999-229.680449 511.999-511.999C1024.002 321.424628 919.191795 147.774289 750.475466 58.816115z" fill="" p-id="2832"></path><path d="M506.386989 359.712703c0-44.144086-35.91407-80.058156-80.058156-80.058157s-80.058156 35.91407-80.058157 80.058157 35.91407 80.058156 80.058157 80.058156 80.058156-35.91407 80.058156-80.058156z m-80.058156 40.028078c-22.072043 0-40.030078-17.958035-40.030079-40.030078s17.958035-40.030078 40.030079-40.030079 40.030078 17.958035 40.030078 40.030079-17.958035 40.030078-40.030078 40.030078zM764.373493 439.770859c44.144086 0 80.058156-35.91407 80.058156-80.058156s-35.91407-80.058156-80.058156-80.058157-80.058156 35.91407-80.058156 80.058157 35.91407 80.058156 80.058156 80.058156z m0-120.088235c22.072043 0 40.030078 17.958035 40.030078 40.030079s-17.958035 40.030078-40.030078 40.030078-40.030078-17.958035-40.030078-40.030078 17.956035-40.030078 40.030078-40.030079zM476.564931 749.915465c-5.684011 9.478019-2.608005 21.774043 6.874013 27.458053 9.482019 5.684011 21.770043 2.604005 27.458054-6.874013 20.39804-34.024066 56.38211-55.158108 93.908183-55.158108 38.510075 0 74.092145 20.924041 92.852182 54.606107a20.012039 20.012039 0 0 0 27.226053 7.748015c9.658019-5.380011 13.124026-17.568034 7.744015-27.226053-25.82205-46.360091-74.798146-75.160147-127.81825-75.160147-51.512101 0-100.652197 28.588056-128.24425 74.606146z" fill="" p-id="2833"></path><path d="M665.7953 46.812091m-20.014039 0a20.014039 20.014039 0 1 0 40.028078 0 20.014039 20.014039 0 1 0-40.028078 0Z" fill="" p-id="2834"></path></svg>