<?xml version="1.0" standalone="no"?><!DOCTYPE svg PUBLIC "-//W3C//DTD SVG 1.1//EN" "http://www.w3.org/Graphics/SVG/1.1/DTD/svg11.dtd"><svg t="1635042619982" class="icon" viewBox="0 0 1024 1024" version="1.1" xmlns="http://www.w3.org/2000/svg" p-id="1866" xmlns:xlink="http://www.w3.org/1999/xlink" width="25" height="25"><defs><style type="text/css"></style></defs><path d="M74.26 748.9V232.97c0-65.61 53.18-118.79 118.79-118.79h383.83c65.61 0 118.79 53.18 118.79 118.79V748.9c0 65.6-53.18 118.79-118.79 118.79H193.05c-65.61 0-118.79-53.18-118.79-118.79z" fill="#B5E08D" p-id="1867"></path><path d="M820.02 909.9H206.28c-72.92 0-132.03-59.11-132.03-132.03V382.99c0-72.92 59.11-132.03 132.03-132.03h613.74c72.92 0 132.03 59.11 132.03 132.03v394.89c0 72.91-59.11 132.02-132.03 132.02z" fill="#79C23C" p-id="1868"></path><path d="M470.55 636.43H243.09c-21.03 0-38.08-17.05-38.08-38.08s17.05-38.08 38.08-38.08h227.46c21.03 0 38.08 17.05 38.08 38.08s-17.04 38.08-38.08 38.08z" fill="#D5EEB3" p-id="1869"></path><path d="M356.82 750.16c-21.03 0-38.08-17.05-38.08-38.08V484.62c0-21.03 17.05-38.08 38.08-38.08s38.08 17.05 38.08 38.08v227.46c0.01 21.03-17.04 38.08-38.08 38.08z" fill="#D5EEB3" p-id="1870"></path></svg>