<?xml version="1.0" standalone="no"?><!DOCTYPE svg PUBLIC "-//W3C//DTD SVG 1.1//EN" "http://www.w3.org/Graphics/SVG/1.1/DTD/svg11.dtd"><svg t="1635042422074" class="icon" viewBox="0 0 1024 1024" version="1.1" xmlns="http://www.w3.org/2000/svg" p-id="1166" xmlns:xlink="http://www.w3.org/1999/xlink" width="25" height="25"><defs><style type="text/css"></style></defs><path d="M512.15 905.69H171.88c-28.92 0-52.37-23.45-52.37-52.37V513.04c0-216.85 175.79-392.65 392.65-392.65 216.85 0 392.65 175.79 392.65 392.65-0.01 216.85-175.8 392.65-392.66 392.65z" fill="#F55965" p-id="1167"></path><path d="M650.11 440.65H374.19c-21.03 0-38.08-17.05-38.08-38.08s17.05-38.08 38.08-38.08h275.92c21.03 0 38.08 17.05 38.08 38.08s-17.04 38.08-38.08 38.08zM541.73 633.71H374.19c-21.03 0-38.08-17.05-38.08-38.08s17.05-38.08 38.08-38.08h167.53c21.03 0 38.08 17.05 38.08 38.08s-17.04 38.08-38.07 38.08z" fill="#FFFFFF" p-id="1168"></path></svg>