<?xml version="1.0" standalone="no"?><!DOCTYPE svg PUBLIC "-//W3C//DTD SVG 1.1//EN" "http://www.w3.org/Graphics/SVG/1.1/DTD/svg11.dtd"><svg t="1624817931218" class="icon" viewBox="0 0 1024 1024" version="1.1" xmlns="http://www.w3.org/2000/svg" p-id="2932" xmlns:xlink="http://www.w3.org/1999/xlink" width="25" height="25"><defs><style type="text/css"></style></defs><path d="M190.103704 112.791704c15.663407 0 29.070222 10.903704 32.426666 25.979259l0.474074 2.541037 9.538371 70.352593 611.688296 0.018963a75.851852 75.851852 0 0 1 75.45363 83.607703l-39.044741 380.169482a75.851852 75.851852 0 0 1-75.45363 68.114963H286.757926a75.851852 75.851852 0 0 1-75.45363-68.114963l-22.490074-219.022222-0.113778-0.644741L159.080296 195.527111a18.962963 18.962963 0 0 0-19.114666-16.820148l-41.813334 0.568889A33.242074 33.242074 0 0 1 65.005037 148.536889l-0.094815-2.465185C64.910222 128.493037 78.468741 114.157037 95.668148 112.886519l2.484148-0.094815H190.103704zM742.874074 344.215704a32.009481 32.009481 0 0 0-45.207704 2.37037l-170.154666 188.909037-89.6-84.195555-2.085926-1.820445a32.009481 32.009481 0 0 0-41.737482 48.45037l101.546667 95.42163 2.275556 2.010074a47.995259 47.995259 0 0 0 65.573925-4.133926l181.741037-201.822815 1.763556-2.123851a32.009481 32.009481 0 0 0-4.133926-43.064889z" fill="#FD6112" p-id="2933"></path><path d="M352.009481 848.004741m-64 0a64 64 0 1 0 128 0 64 64 0 1 0-128 0Z" fill="#FD6112" fill-opacity=".5" p-id="2934"></path><path d="M751.995259 848.004741m-64 0a64 64 0 1 0 128 0 64 64 0 1 0-128 0Z" fill="#FD6112" fill-opacity=".5" p-id="2935"></path></svg>