<?xml version="1.0" standalone="no"?><!DOCTYPE svg PUBLIC "-//W3C//DTD SVG 1.1//EN" "http://www.w3.org/Graphics/SVG/1.1/DTD/svg11.dtd"><svg t="1624817998321" class="icon" viewBox="0 0 1024 1024" version="1.1" xmlns="http://www.w3.org/2000/svg" p-id="945" xmlns:xlink="http://www.w3.org/1999/xlink" width="25" height="25"><defs><style type="text/css"></style></defs><path d="M172.335407 299.595852l119.333926 68.266667a37.925926 37.925926 0 0 0 48.412445-9.216l142.203259-177.53126a37.925926 37.925926 0 0 1 59.297185 0.132741l140.762074 177.284741a37.925926 37.925926 0 0 0 48.412445 9.386666l121.116444-68.74074a37.925926 37.925926 0 0 1 55.599408 41.870222l-77.444741 320.853333a75.851852 75.851852 0 0 1-73.746963 58.04563H267.738074a75.851852 75.851852 0 0 1-73.746963-58.04563l-77.349926-320.474074a37.925926 37.925926 0 0 1 55.694222-41.832296z" fill="#0CCA8A" p-id="946"></path><path d="M208.004741 784.004741m32.009481 0l543.990519 0q32.009481 0 32.009481 32.009481l0-0.018963q0 32.009481-32.009481 32.009482l-543.990519 0q-32.009481 0-32.009481-32.009482l0 0.018963q0-32.009481 32.009481-32.009481Z" fill="#0CCA8A" fill-opacity=".5" p-id="947"></path></svg>